<svg id="eaINpQ5Xvei1" xmlns="http://www.w3.org/2000/svg" xmlns:xlink="http://www.w3.org/1999/xlink" viewBox="0 0 300 300" shape-rendering="geometricPrecision" text-rendering="geometricPrecision"><path d="M152.868469,153.592249c0,0-21.2068-48.756619-52.423034-24.314118-17.326126,13.566462-11.104153,44.066303,8.663064,68.263536c17.326125,21.20907,43.77621,34.232387,43.77621,34.232387s26.281603-13.023317,43.607734-34.232387c19.708428-24.12526,25.989186-54.697074,8.680349-68.263536-31.342219-24.565661-52.288083,24.314118-52.288083,24.314118" transform="matrix(2.161741 0 0 2.362898-180.303295-267.780599)" stroke="#000" stroke-width="11" stroke-linecap="round"/><path d="M249.944044,66.226391c19.395182,27.766317,6.929062,75.435997-10.869551,98.662082" transform="translate(5.263272-4.852835)" fill="none" stroke="#fff" stroke-width="27" stroke-linecap="round" stroke-linejoin="round"/><path d="M234.05778,186.62758c-2.66268,3.55024-4.8624,7.31932-7.52507,10.86955" transform="translate(-8.836119 5.567683)" fill="none" stroke="#fff" stroke-width="27" stroke-linecap="round" stroke-linejoin="round"/></svg>
